<svg width="32" height="32" viewBox="0 0 32 32" fill="none" xmlns="http://www.w3.org/2000/svg">
<path fill-rule="evenodd" clip-rule="evenodd" d="M16 26C16.4657 26 16.9049 25.7837 17.1889 25.4146L22.1889 18.9146C22.694 18.2579 22.5711 17.3162 21.9145 16.8111C21.2579 16.306 20.3161 16.4288 19.811 17.0854L17.5 20.0898V7.5C17.5 6.67157 16.8284 6 16 6C15.1715 6 14.5 6.67157 14.5 7.5V20.0898L12.1889 17.0854C11.6838 16.4288 10.742 16.306 10.0854 16.8111C9.42876 17.3162 9.30592 18.2579 9.81102 18.9146L14.811 25.4146C15.095 25.7837 15.5342 26 16 26Z" fill="white"/>
</svg>
