<svg width="32" height="32" viewBox="0 0 32 32" fill="none" xmlns="http://www.w3.org/2000/svg">
<path d="M20.0001 15.9999C20.5859 16.5857 21.5356 16.5857 22.1214 15.9999L25.7072 12.4141C26.4882 11.633 26.4882 10.3667 25.7072 9.58567L22.1214 5.99989C21.5356 5.4141 20.5859 5.4141 20.0001 5.99989C19.4143 6.58567 19.4143 7.53542 20.0001 8.12121L21.3789 9.5L12.5 9.5C11.6716 9.5 11 10.1716 11 11C11 11.8284 11.6716 12.5 12.5 12.5L21.3786 12.5L20.0001 13.8786C19.4143 14.4644 19.4143 15.4141 20.0001 15.9999Z" fill="white"/>
<path d="M11.9999 16.0001C11.4141 15.4143 10.4644 15.4143 9.87861 16.0001L6.29282 19.5859C5.51177 20.367 5.51177 21.6333 6.29282 22.4143L9.8786 26.0001C10.4644 26.5859 11.4141 26.5859 11.9999 26.0001C12.5857 25.4143 12.5857 24.4646 11.9999 23.8788L10.6211 22.5H19.5C20.3284 22.5 21 21.8284 21 21C21 20.1716 20.3284 19.5 19.5 19.5H10.6214L11.9999 18.1214C12.5857 17.5356 12.5857 16.5859 11.9999 16.0001Z" fill="white"/>
</svg>
