<svg width="32" height="32" viewBox="0 0 32 32" fill="none" xmlns="http://www.w3.org/2000/svg">
<path fill-rule="evenodd" clip-rule="evenodd" d="M16 6C16.4657 6 16.9049 6.21631 17.1889 6.58543L22.1889 13.0854C22.694 13.7421 22.5711 14.6838 21.9145 15.1889C21.2579 15.694 20.3161 15.5712 19.811 14.9146L17.5 11.9102V24.5C17.5 25.3284 16.8284 26 16 26C15.1715 26 14.5 25.3284 14.5 24.5V11.9102L12.1889 14.9146C11.6838 15.5712 10.742 15.694 10.0854 15.1889C9.42876 14.6838 9.30592 13.7421 9.81102 13.0854L14.811 6.58543C15.095 6.21631 15.5342 6 16 6Z" fill="white"/>
</svg>
