<svg width="32" height="32" viewBox="0 0 32 32" fill="none" xmlns="http://www.w3.org/2000/svg">
<path fill-rule="evenodd" clip-rule="evenodd" d="M13.25 6C12.8358 6 12.5 6.33579 12.5 6.75V11.25C12.5 11.6642 12.8358 12 13.25 12H18.75C19.1642 12 19.5 11.6642 19.5 11.25V6.75C19.5 6.33579 19.1642 6 18.75 6H13.25ZM14 10.5V7.5H18V10.5H14Z" fill="white"/>
<path d="M9.25 8C8.55964 8 8 8.55964 8 9.25V24.75C8 25.4404 8.55964 26 9.25 26H22.75C23.4404 26 24 25.4404 24 24.75V9.25C24 8.55964 23.4404 8 22.75 8H20.5V10.5H21.5V23.5H10.5V10.5H11.5V8H9.25Z" fill="white"/>
</svg>
