<svg width="32" height="32" viewBox="0 0 32 32" fill="none" xmlns="http://www.w3.org/2000/svg">
<path d="M24 8C24 9.65685 22.6569 11 21 11C20.4184 11 19.8755 10.8345 19.4158 10.5481L16.2453 13.0845C16.5713 13.6698 16.8022 14.3153 16.9171 15.0001H21.1707C21.5825 13.8349 22.6937 13 24 13C25.6569 13 27 14.3431 27 16C27 17.6569 25.6569 19 24 19C22.6938 19 21.5826 18.1652 21.1707 17.0001H16.917C16.8021 17.6849 16.5712 18.3304 16.2452 18.9157L19.4156 21.452C19.8754 21.1655 20.4184 21 21 21C22.6569 21 24 22.3431 24 24C24 25.6569 22.6569 27 21 27C19.3431 27 18 25.6569 18 24C18 23.6544 18.0584 23.3225 18.166 23.0135L14.9949 20.4767C13.934 21.4241 12.5343 22 11 22C7.68629 22 5 19.3137 5 16C5 12.6863 7.68629 10 11 10C12.5343 10 13.9342 10.5759 14.9951 11.5234L18.166 8.98663C18.0585 8.67764 18 8.34564 18 8C18 6.34315 19.3431 5 21 5C22.6569 5 24 6.34315 24 8Z" fill="white"/>
</svg>
