<svg width="32" height="32" viewBox="0 0 32 32" fill="none" xmlns="http://www.w3.org/2000/svg">
<path d="M12.5 7C12.5 6.44772 12.9477 6 13.5 6H18.5C19.0523 6 19.5 6.44772 19.5 7V13.5H23.6849C24.1447 13.5 24.3607 14.0683 24.0171 14.3737L16.3322 21.2047C16.1427 21.3731 15.8573 21.3731 15.6678 21.2047L7.98292 14.3737C7.63929 14.0683 7.85534 13.5 8.3151 13.5H12.5V7Z" fill="white"/>
<path d="M7 24.5C7 23.6716 7.67157 23 8.5 23H23.5C24.3284 23 25 23.6716 25 24.5C25 25.3284 24.3284 26 23.5 26H8.5C7.67157 26 7 25.3284 7 24.5Z" fill="white"/>
</svg>
