<svg width="32" height="32" viewBox="0 0 32 32" fill="none" xmlns="http://www.w3.org/2000/svg">
<path d="M19.8839 9.11606L16 5.23218L12.1161 9.11606C11.628 9.60422 11.628 10.3957 12.1161 10.8838C12.6043 11.372 13.3957 11.372 13.8839 10.8838L14.75 10.0177V17.9999C14.75 18.6903 15.3096 19.2499 16 19.2499C16.6904 19.2499 17.25 18.6903 17.25 17.9999V10.0177L18.1161 10.8838C18.6043 11.372 19.3957 11.372 19.8839 10.8838C20.372 10.3957 20.372 9.60422 19.8839 9.11606Z" fill="white"/>
<path d="M10.5 13C9.11929 13 8 14.1193 8 15.5V23.5C8 24.8807 9.11929 26 10.5 26H21.5C22.8807 26 24 24.8807 24 23.5V15.5C24 14.1193 22.8807 13 21.5 13H20.5C19.8096 13 19.25 13.5596 19.25 14.25C19.25 14.9404 19.8096 15.5 20.5 15.5H21.5V23.5H10.5V15.5H11.5C12.1904 15.5 12.75 14.9404 12.75 14.25C12.75 13.5596 12.1904 13 11.5 13H10.5Z" fill="white"/>
</svg>
