<svg width="32" height="32" viewBox="0 0 32 32" fill="none" xmlns="http://www.w3.org/2000/svg">
<path d="M11.5 11C11.5 10.4477 11.0523 10 10.5 10H8.5C7.11929 10 6 11.1193 6 12.5V21.5C6 22.8807 7.11929 24 8.5 24H17.5C18.8807 24 20 22.8807 20 21.5V19.5C20 18.9477 19.5523 18.5 19 18.5C18.4477 18.5 18 18.9477 18 19.5V21C18 21.5523 17.5523 22 17 22H9C8.44772 22 8 21.5523 8 21V13C8 12.4477 8.44772 12 9 12H10.5C11.0523 12 11.5 11.5523 11.5 11Z" fill="white"/>
<path d="M15 10C14.4477 10 14 10.4477 14 11C14 11.5523 14.4477 12 15 12H16.5L10.7071 17.7929C10.3166 18.1834 10.3166 18.8166 10.7071 19.2071L10.7929 19.2929C11.1834 19.6834 11.8166 19.6834 12.2071 19.2929L18 13.5V15C18 15.5523 18.4477 16 19 16C19.5523 16 20 15.5523 20 15V10H15Z" fill="white"/>
</svg>
