<svg width="18" height="13" viewBox="0 0 18 13" fill="none" xmlns="http://www.w3.org/2000/svg">
<path d="M12 6.5C12 8.15685 10.6569 9.5 9 9.5C7.34315 9.5 6 8.15685 6 6.5C6 4.84315 7.34315 3.5 9 3.5C10.6569 3.5 12 4.84315 12 6.5Z" fill="white"/>
<path fill-rule="evenodd" clip-rule="evenodd" d="M9 0.25C13.9706 0.25 16.875 3.77273 18 6.5C16.875 9.22727 13.9706 12.75 9 12.75C4.02944 12.75 1.125 9.22727 0 6.5C1.125 3.77273 4.02944 0.25 9 0.25ZM4.5 6.5C4.5 4.01472 6.51472 2 9 2C11.4853 2 13.5 4.01472 13.5 6.5C13.5 8.98528 11.4853 11 9 11C6.51472 11 4.5 8.98528 4.5 6.5Z" fill="white"/>
</svg>
