<svg width="24" height="24" viewBox="0 0 32 32" fill="none" xmlns="http://www.w3.org/2000/svg">
<path fill-rule="evenodd" clip-rule="evenodd" d="M23 14C24.1046 14 25 14.8954 25 16C25 17.1046 24.1046 18 23 18H9C7.89543 18 7 17.1046 7 16C7 14.8954 7.89543 14 9 14H23Z" fill="white"/>
<path fill-rule="evenodd" clip-rule="evenodd" d="M23 21C24.1046 21 25 21.8954 25 23C25 24.1046 24.1046 25 23 25H9C7.89543 25 7 24.1046 7 23C7 21.8954 7.89543 21 9 21H23Z" fill="white"/>
<path fill-rule="evenodd" clip-rule="evenodd" d="M23 7C24.1046 7 25 7.89543 25 9C25 10.1046 24.1046 11 23 11H9C7.89543 11 7 10.1046 7 9C7 7.89543 7.89543 7 9 7H23Z" fill="white"/>
</svg>
