<svg width="32" height="32" viewBox="0 0 32 32" fill="none" xmlns="http://www.w3.org/2000/svg">
<path fill-rule="evenodd" clip-rule="evenodd" d="M16 27C22.0751 27 27 22.0751 27 16C27 9.92487 22.0751 5 16 5C9.92487 5 5 9.92487 5 16C5 22.0751 9.92487 27 16 27ZM14.5501 11.9101C14.8895 12.2747 15.3735 12.457 16.0021 12.457C16.6307 12.457 17.1147 12.2747 17.4541 11.9101C17.7935 11.5455 17.9632 11.0992 17.9632 10.5712C17.9632 10.0432 17.7935 9.59695 17.4541 9.23238C17.1147 8.85524 16.6307 8.66667 16.0021 8.66667C15.3735 8.66667 14.8895 8.85524 14.5501 9.23238C14.2107 9.59695 14.041 10.0432 14.041 10.5712C14.041 11.0992 14.2107 11.5455 14.5501 11.9101ZM13.381 22.225V22.9981H18.9061V22.225L18.4158 22.0741C18.2524 22.0238 18.1392 21.9484 18.0764 21.8478C18.0135 21.7347 17.9821 21.5524 17.9821 21.301V13.5695L17.6804 13.3055C17.0644 13.4312 16.4107 13.5318 15.7192 13.6072C15.0278 13.6827 14.2484 13.733 13.381 13.7581V14.6444L13.7958 14.7198C13.997 14.7701 14.129 14.833 14.1918 14.9084C14.2672 14.9838 14.305 15.1032 14.305 15.2667V21.301C14.305 21.5524 14.2735 21.7347 14.2107 21.8478C14.1604 21.9484 14.0472 22.0238 13.8712 22.0741L13.381 22.225Z" fill="white"/>
</svg>
