<svg width="32" height="32" viewBox="0 0 32 32" fill="none" xmlns="http://www.w3.org/2000/svg">
<path d="M8.5 11C9.60457 11 10.5 10.1046 10.5 9C10.5 7.89543 9.60457 7 8.5 7C7.39543 7 6.5 7.89543 6.5 9C6.5 10.1046 7.39543 11 8.5 11Z" fill="white"/>
<path d="M10.5 16C10.5 17.1046 9.60457 18 8.5 18C7.39543 18 6.5 17.1046 6.5 16C6.5 14.8954 7.39543 14 8.5 14C9.60457 14 10.5 14.8954 10.5 16Z" fill="white"/>
<path d="M8.5 25C9.60457 25 10.5 24.1046 10.5 23C10.5 21.8954 9.60457 21 8.5 21C7.39543 21 6.5 21.8954 6.5 23C6.5 24.1046 7.39543 25 8.5 25Z" fill="white"/>
<path d="M14.5 21C13.3954 21 12.5 21.8954 12.5 23C12.5 24.1046 13.3954 25 14.5 25H23.5C24.6046 25 25.5 24.1046 25.5 23C25.5 21.8954 24.6046 21 23.5 21H14.5Z" fill="white"/>
<path d="M12.5 16C12.5 14.8954 13.3954 14 14.5 14H23.5C24.6046 14 25.5 14.8954 25.5 16C25.5 17.1046 24.6046 18 23.5 18H14.5C13.3954 18 12.5 17.1046 12.5 16Z" fill="white"/>
<path d="M14.5 7C13.3954 7 12.5 7.89543 12.5 9C12.5 10.1046 13.3954 11 14.5 11H23.5C24.6046 11 25.5 10.1046 25.5 9C25.5 7.89543 24.6046 7 23.5 7H14.5Z" fill="white"/>
</svg>
