<svg width="32" height="32" viewBox="0 0 32 32" fill="none" xmlns="http://www.w3.org/2000/svg">
<path fill-rule="evenodd" clip-rule="evenodd" d="M19.1664 18.2824C20.1344 17.1166 20.7164 15.6189 20.7164 13.9852C20.7164 10.2676 17.7027 7.25391 13.9852 7.25391C10.2676 7.25391 7.25391 10.2676 7.25391 13.9852C7.25391 17.7027 10.2676 20.7164 13.9852 20.7164C15.6189 20.7164 17.1167 20.1344 18.2825 19.1663L19.2733 20.1571C19.0757 20.6898 19.1909 21.3123 19.619 21.7404L22.6542 24.7755C23.24 25.3613 24.1897 25.3613 24.7755 24.7755C25.3613 24.1897 25.3613 23.24 24.7755 22.6542L21.7403 19.619C21.3123 19.191 20.6899 19.0757 20.1572 19.2732L19.1664 18.2824ZM13.9852 18.7164C16.5982 18.7164 18.7164 16.5982 18.7164 13.9852C18.7164 11.3722 16.5982 9.25391 13.9852 9.25391C11.3722 9.25391 9.25391 11.3722 9.25391 13.9852C9.25391 16.5982 11.3722 18.7164 13.9852 18.7164Z" fill="white"/>
</svg>
