<svg width="32" height="32" viewBox="0 0 32 32" fill="none" xmlns="http://www.w3.org/2000/svg">
<path fill-rule="evenodd" clip-rule="evenodd" d="M10.0001 5C8.89549 5 8.00006 5.89543 8.00006 7L8 13.8321C6.2341 14.6036 5 16.3657 5 18.416C5 20.4664 6.2341 22.2284 8 23L8.00006 25C8.00006 26.1046 8.89549 27 10.0001 27C11.1046 27 12.0001 26.1046 12.0001 25L12 23C13.7659 22.2284 15 20.4664 15 18.416C15 16.3657 13.7659 14.6036 12 13.8321L12.0001 7C12.0001 5.89543 11.1046 5 10.0001 5ZM12.5 18.5C12.5 19.8807 11.3807 21 10 21C8.61929 21 7.5 19.8807 7.5 18.5C7.5 17.1193 8.61929 16 10 16C11.3807 16 12.5 17.1193 12.5 18.5Z" fill="white"/>
<path fill-rule="evenodd" clip-rule="evenodd" d="M22.0001 27C23.1046 27 24.0001 26.1046 24.0001 25V18C25.766 17.2284 27.0001 15.4664 27.0001 13.416C27.0001 11.3657 25.766 9.60364 24.0001 8.83209V7C24.0001 5.89543 23.1046 5 22.0001 5C20.8955 5 20.0001 5.89543 20.0001 7V8.83209C18.2342 9.60365 17.0001 11.3657 17.0001 13.416C17.0001 15.4664 18.2342 17.2284 20.0001 18V25C20.0001 26.1046 20.8955 27 22.0001 27ZM24.5 13.5C24.5 14.8807 23.3807 16 22 16C20.6193 16 19.5 14.8807 19.5 13.5C19.5 12.1193 20.6193 11 22 11C23.3807 11 24.5 12.1193 24.5 13.5Z" fill="white"/>
</svg>
