<svg width="32" height="32" viewBox="0 0 32 32" fill="none" xmlns="http://www.w3.org/2000/svg">
<path d="M15.2867 7.01824C15.5112 6.32725 16.4888 6.32725 16.7133 7.01824L18.5258 12.5965C18.6262 12.9055 18.9142 13.1147 19.2391 13.1147H25.1044C25.831 13.1147 26.133 14.0445 25.5453 14.4715L20.8001 17.9191C20.5372 18.1101 20.4272 18.4486 20.5276 18.7576L22.3401 24.3359C22.5646 25.0268 21.7738 25.6014 21.186 25.1744L16.4408 21.7268C16.178 21.5358 15.822 21.5358 15.5592 21.7268L10.814 25.1744C10.2262 25.6014 9.43536 25.0268 9.65987 24.3359L11.4724 18.7576C11.5728 18.4486 11.4628 18.1101 11.1999 17.9191L6.45475 14.4715C5.86696 14.0445 6.16904 13.1147 6.89559 13.1147H12.7609C13.0858 13.1147 13.3738 12.9055 13.4742 12.5965L15.2867 7.01824Z" fill="white"/>
</svg>
