<svg width="26" height="26" viewBox="0 0 32 32" fill="none" xmlns="http://www.w3.org/2000/svg">
<path fill-rule="evenodd" clip-rule="evenodd" d="M12.25 7V8H8.5C7.94772 8 7.5 8.44771 7.5 9V11H24.5V9C24.5 8.44772 24.0523 8 23.5 8H19.75V7C19.75 6.0335 18.9665 5.25 18 5.25H14C13.0335 5.25 12.25 6.0335 12.25 7ZM14 6.75C13.8619 6.75 13.75 6.86193 13.75 7V8H18.25V7C18.25 6.86193 18.1381 6.75 18 6.75H14Z" fill="white"/>
<path fill-rule="evenodd" clip-rule="evenodd" d="M9 12.5H23V24C23 25.1046 22.1046 26 21 26H11C9.89543 26 9 25.1046 9 24V12.5ZM12 14.75C11.4477 14.75 11 15.1977 11 15.75V22.75C11 23.3023 11.4477 23.75 12 23.75C12.5523 23.75 13 23.3023 13 22.75V15.75C13 15.1977 12.5523 14.75 12 14.75ZM16 14.75C15.4477 14.75 15 15.1977 15 15.75V22.75C15 23.3023 15.4477 23.75 16 23.75C16.5523 23.75 17 23.3023 17 22.75V15.75C17 15.1977 16.5523 14.75 16 14.75ZM20 14.75C19.4477 14.75 19 15.1977 19 15.75V22.75C19 23.3023 19.4477 23.75 20 23.75C20.5523 23.75 21 23.3023 21 22.75V15.75C21 15.1977 20.5523 14.75 20 14.75Z" fill="white"/>
</svg>
