<svg width="32" height="32" viewBox="0 0 32 32" fill="none" xmlns="http://www.w3.org/2000/svg">
<path fill-rule="evenodd" clip-rule="evenodd" d="M12.2849 6C12.0115 6 11.7493 6.10861 11.5559 6.30193L6.30193 11.5559C6.10861 11.7493 6 12.0115 6 12.2849V19.7151C6 19.9885 6.10861 20.2507 6.30193 20.4441L11.5559 25.6981C11.7493 25.8914 12.0115 26 12.2849 26H19.7151C19.9885 26 20.2507 25.8914 20.4441 25.6981L25.6981 20.4441C25.8914 20.2507 26 19.9885 26 19.7151V12.2849C26 12.0115 25.8914 11.7493 25.6981 11.5559L20.4441 6.30193C20.2507 6.10861 19.9885 6 19.7151 6H12.2849ZM10.3431 10.3431C10.9289 9.75736 11.8787 9.75736 12.4645 10.3431L16 13.8787L19.5355 10.3431C20.1213 9.75736 21.0711 9.75736 21.6569 10.3431C22.2426 10.9289 22.2426 11.8787 21.6569 12.4645L18.1213 16L21.6569 19.5355C22.2426 20.1213 22.2426 21.0711 21.6569 21.6569C21.0711 22.2426 20.1213 22.2426 19.5355 21.6569L16 18.1213L12.4645 21.6569C11.8787 22.2426 10.9289 22.2426 10.3431 21.6569C9.75736 21.0711 9.75736 20.1213 10.3431 19.5355L13.8787 16L10.3431 12.4645C9.75736 11.8787 9.75736 10.9289 10.3431 10.3431Z" fill="white"/>
</svg>
