<svg width="32" height="32" viewBox="0 0 32 32" fill="none" xmlns="http://www.w3.org/2000/svg">
<path fill-rule="evenodd" clip-rule="evenodd" d="M16 27C22.0751 27 27 22.0751 27 16C27 9.92487 22.0751 5 16 5C9.92487 5 5 9.92487 5 16C5 22.0751 9.92487 27 16 27ZM12.4645 10.3431C11.8787 9.75736 10.9289 9.75736 10.3431 10.3431C9.75736 10.9289 9.75736 11.8787 10.3431 12.4645L13.8787 16L10.3431 19.5355C9.75736 20.1213 9.75736 21.0711 10.3431 21.6569C10.9289 22.2426 11.8787 22.2426 12.4645 21.6569L16 18.1213L19.5355 21.6569C20.1213 22.2426 21.0711 22.2426 21.6569 21.6569C22.2426 21.0711 22.2426 20.1213 21.6569 19.5355L18.1213 16L21.6569 12.4645C22.2426 11.8787 22.2426 10.9289 21.6569 10.3431C21.0711 9.75736 20.1213 9.75736 19.5355 10.3431L16 13.8787L12.4645 10.3431Z" fill="white"/>
</svg>
