<svg width="32" height="32" viewBox="0 0 32 32" fill="none" xmlns="http://www.w3.org/2000/svg">
<path fill-rule="evenodd" clip-rule="evenodd" d="M8.92893 8.92905C9.70998 8.148 10.9763 8.148 11.7574 8.92905L16 13.1717L20.2426 8.92905C21.0237 8.148 22.29 8.148 23.0711 8.92905C23.8521 9.7101 23.8521 10.9764 23.0711 11.7575L18.8284 16.0001L23.0711 20.2428C23.8521 21.0238 23.8521 22.2901 23.0711 23.0712C22.29 23.8522 21.0237 23.8522 20.2426 23.0712L16 18.8285L11.7574 23.0712C10.9763 23.8522 9.70998 23.8522 8.92893 23.0712C8.14789 22.2901 8.14789 21.0238 8.92893 20.2428L13.1716 16.0001L8.92893 11.7575C8.14789 10.9764 8.14789 9.7101 8.92893 8.92905Z" fill="white"/>
</svg>
